<svg width="1280" height="720" xmlns="http://www.w3.org/2000/svg" xmlns:xlink="http://www.w3.org/1999/xlink" overflow="hidden"><g><rect x="0" y="0" width="1280" height="720" fill="#FFFFFF"/><path d="M26.5001 117.5 1234 117.5 1265.5 149 1234 180.5 26.5001 180.5 57.9994 149Z" stroke="#FFFFFF" stroke-width="1.33333" stroke-miterlimit="8" fill="#4472C4" fill-rule="evenodd"/><text fill="#FFFFFF" font-family="Calibri,Calibri_MSFontService,sans-serif" font-weight="400" font-size="48" transform="translate(555.433 162)">Input text</text><path d="M26.5001 207.5 164 207.5 195.5 239 164 270.5 26.5001 270.5 58.0001 239Z" stroke="#FFFFFF" stroke-width="1.33333" stroke-miterlimit="8" fill="#4472C4" fill-rule="evenodd"/><text fill="#FFFFFF" font-family="Calibri,Calibri_MSFontService,sans-serif" font-weight="400" font-size="44" transform="translate(74.019 251)">LTR1</text><path d="M179.5 207.5 317 207.5 348.5 239 317 270.5 179.5 270.5 211 239Z" stroke="#FFFFFF" stroke-width="1.33333" stroke-miterlimit="8" fill="#4472C4" fill-rule="evenodd"/><text fill="#FFFFFF" font-family="Calibri,Calibri_MSFontService,sans-serif" font-weight="400" font-size="44" transform="translate(226.242 251)">LTR2</text><path d="M331.5 207.5 469 207.5 500.5 239 469 270.5 331.5 270.5 363 239Z" stroke="#FFFFFF" stroke-width="1.33333" stroke-miterlimit="8" fill="#4472C4" fill-rule="evenodd"/><text fill="#FFFFFF" font-family="Calibri,Calibri_MSFontService,sans-serif" font-weight="400" font-size="44" transform="translate(378.465 251)">LTR3</text><path d="M483.5 207.5 621 207.5 652.5 239 621 270.5 483.5 270.5 515 239Z" stroke="#FFFFFF" stroke-width="1.33333" stroke-miterlimit="8" fill="#00B050" fill-rule="evenodd"/><text fill="#FFFFFF" font-family="Calibri,Calibri_MSFontService,sans-serif" font-weight="400" font-size="44" transform="translate(529.291 251)">RTL1</text><path d="M635.5 207.5 773 207.5 804.5 239 773 270.5 635.5 270.5 667 239Z" stroke="#FFFFFF" stroke-width="1.33333" stroke-miterlimit="8" fill="#00B050" fill-rule="evenodd"/><text fill="#FFFFFF" font-family="Calibri,Calibri_MSFontService,sans-serif" font-weight="400" font-size="44" transform="translate(681.514 251)">RTL2</text><path d="M787.5 207.5 926 207.5 957.5 239 926 270.5 787.5 270.5 819 239Z" stroke="#FFFFFF" stroke-width="1.33333" stroke-miterlimit="8" fill="#00B050" fill-rule="evenodd"/><text fill="#FFFFFF" font-family="Calibri,Calibri_MSFontService,sans-serif" font-weight="400" font-size="44" transform="translate(833.738 251)">RTL3</text><path d="M940.5 207.5 1078 207.5 1109.5 239 1078 270.5 940.5 270.5 972 239Z" stroke="#FFFFFF" stroke-width="1.33333" stroke-miterlimit="8" fill="#4472C4" fill-rule="evenodd"/><text fill="#FFFFFF" font-family="Calibri,Calibri_MSFontService,sans-serif" font-weight="400" font-size="44" transform="translate(987.357 251)">LTR4</text><path d="M1092.5 207.5 1230 207.5 1261.5 239 1230 270.5 1092.5 270.5 1124 239Z" stroke="#FFFFFF" stroke-width="1.33333" stroke-miterlimit="8" fill="#00B050" fill-rule="evenodd"/><text fill="#FFFFFF" font-family="Calibri,Calibri_MSFontService,sans-serif" font-weight="400" font-size="44" transform="translate(1138.18 251)">RTL4</text><path d="M26.5001 430.5 164 430.5 196.5 463 164 495.5 26.5001 495.5 59.0001 463Z" stroke="#FFFFFF" stroke-width="1.33333" stroke-miterlimit="8" fill="#4472C4" fill-rule="evenodd"/><text fill="#FFFFFF" font-family="Calibri,Calibri_MSFontService,sans-serif" font-weight="400" font-size="44" transform="translate(73.931 475)">LTR1</text><path d="M179.5 430.5 317 430.5 349.5 463 317 495.5 179.5 495.5 212 463Z" stroke="#FFFFFF" stroke-width="1.33333" stroke-miterlimit="8" fill="#4472C4" fill-rule="evenodd"/><text fill="#FFFFFF" font-family="Calibri,Calibri_MSFontService,sans-serif" font-weight="400" font-size="44" transform="translate(226.846 475)">LTR2</text><path d="M332.5 430.5 470 430.5 502.5 463 470 495.5 332.5 495.5 365 463Z" stroke="#FFFFFF" stroke-width="1.33333" stroke-miterlimit="8" fill="#4472C4" fill-rule="evenodd"/><text fill="#FFFFFF" font-family="Calibri,Calibri_MSFontService,sans-serif" font-weight="400" font-size="44" transform="translate(379.76 475)">LTR3</text><path d="M654.5 495.5 518 495.5 485.5 463 518 430.5 654.5 430.5 622 463Z" stroke="#FFFFFF" stroke-width="1.33333" stroke-miterlimit="8" fill="#00B050" fill-rule="evenodd"/><path d="M807.5 495.5 670 495.5 637.5 463 670 430.5 807.5 430.5 775 463Z" stroke="#FFFFFF" stroke-width="1.33333" stroke-miterlimit="8" fill="#00B050" fill-rule="evenodd"/><path d="M960.5 495.5 823 495.5 790.5 463 823 430.5 960.5 430.5 928 463Z" stroke="#FFFFFF" stroke-width="1.33333" stroke-miterlimit="8" fill="#00B050" fill-rule="evenodd"/><path d="M943.5 430.5 1081 430.5 1113.5 463 1081 495.5 943.5 495.5 976 463Z" stroke="#FFFFFF" stroke-width="1.33333" stroke-miterlimit="8" fill="#4472C4" fill-rule="evenodd"/><text fill="#FFFFFF" font-family="Calibri,Calibri_MSFontService,sans-serif" font-weight="400" font-size="44" transform="translate(991.419 475)">LTR4</text><path d="M1266.5 495.5 1129 495.5 1096.5 463 1129 430.5 1266.5 430.5 1234 463Z" stroke="#FFFFFF" stroke-width="1.33333" stroke-miterlimit="8" fill="#00B050" fill-rule="evenodd"/><text fill="#FFFFFF" font-family="Calibri,Calibri_MSFontService,sans-serif" font-weight="400" font-size="44" transform="translate(523.413 475)">RTL</text><text fill="#FFFFFF" font-family="Calibri,Calibri_MSFontService,sans-serif" font-weight="400" font-size="44" transform="translate(586.82 475)">3</text><text fill="#FFFFFF" font-family="Calibri,Calibri_MSFontService,sans-serif" font-weight="400" font-size="44" transform="translate(675.933 474)">RTL2</text><text fill="#FFFFFF" font-family="Calibri,Calibri_MSFontService,sans-serif" font-weight="400" font-size="44" transform="translate(823.361 476)">RTL1</text><text fill="#FFFFFF" font-family="Calibri,Calibri_MSFontService,sans-serif" font-weight="400" font-size="44" transform="translate(1137.61 474)">RTL4</text><path d="M191.5 635.5 52 635.5 21.5 605 52 574.5 191.5 574.5 161 605Z" stroke="#FFFFFF" stroke-width="1.33333" stroke-miterlimit="8" fill="#00B050" fill-rule="evenodd"/><path d="M174.5 574.5 313 574.5 343.5 605 313 635.5 174.5 635.5 205 605Z" stroke="#FFFFFF" stroke-width="1.33333" stroke-miterlimit="8" fill="#4472C4" fill-rule="evenodd"/><text fill="#FFFFFF" font-family="Calibri,Calibri_MSFontService,sans-serif" font-weight="400" font-size="47" transform="translate(219.478 617)">LTR4</text><path d="M496.5 635.5 358 635.5 327.5 605 358 574.5 496.5 574.5 466 605Z" stroke="#FFFFFF" stroke-width="1.33333" stroke-miterlimit="8" fill="#00B050" fill-rule="evenodd"/><path d="M649.5 635.5 510 635.5 479.5 605 510 574.5 649.5 574.5 619 605Z" stroke="#FFFFFF" stroke-width="1.33333" stroke-miterlimit="8" fill="#00B050" fill-rule="evenodd"/><path d="M802.5 635.5 663 635.5 632.5 605 663 574.5 802.5 574.5 772 605Z" stroke="#FFFFFF" stroke-width="1.33333" stroke-miterlimit="8" fill="#00B050" fill-rule="evenodd"/><path d="M785.5 574.5 925 574.5 955.5 605 925 635.5 785.5 635.5 816 605Z" stroke="#FFFFFF" stroke-width="1.33333" stroke-miterlimit="8" fill="#4472C4" fill-rule="evenodd"/><text fill="#FFFFFF" font-family="Calibri,Calibri_MSFontService,sans-serif" font-weight="400" font-size="47" transform="translate(831.136 617)">LTR1</text><path d="M938.5 574.5 1078 574.5 1108.5 605 1078 635.5 938.5 635.5 969 605Z" stroke="#FFFFFF" stroke-width="1.33333" stroke-miterlimit="8" fill="#4472C4" fill-rule="evenodd"/><text fill="#FFFFFF" font-family="Calibri,Calibri_MSFontService,sans-serif" font-weight="400" font-size="47" transform="translate(984.051 617)">LTR2</text><path d="M1091.5 574.5 1231 574.5 1261.5 605 1231 635.5 1091.5 635.5 1122 605Z" stroke="#FFFFFF" stroke-width="1.33333" stroke-miterlimit="8" fill="#4472C4" fill-rule="evenodd"/><text fill="#FFFFFF" font-family="Calibri,Calibri_MSFontService,sans-serif" font-weight="400" font-size="47" transform="translate(1136.97 617)">LTR3</text><text fill="#FFFFFF" font-family="Calibri,Calibri_MSFontService,sans-serif" font-weight="400" font-size="44" transform="translate(666.224 617)">RTL1</text><text fill="#FFFFFF" font-family="Calibri,Calibri_MSFontService,sans-serif" font-weight="400" font-size="44" transform="translate(515.574 616)">RTL2</text><text fill="#FFFFFF" font-family="Calibri,Calibri_MSFontService,sans-serif" font-weight="400" font-size="44" transform="translate(365.335 619)">RTL</text><text fill="#FFFFFF" font-family="Calibri,Calibri_MSFontService,sans-serif" font-weight="400" font-size="44" transform="translate(428.742 619)">3</text><text fill="#FFFFFF" font-family="Calibri,Calibri_MSFontService,sans-serif" font-weight="400" font-size="44" transform="translate(61.7561 617)">RTL4</text><text font-family="Calibri,Calibri_MSFontService,sans-serif" font-weight="400" font-size="24" transform="translate(30.1712 70)">First</text><text font-family="Calibri,Calibri_MSFontService,sans-serif" font-weight="400" font-size="24" transform="translate(77.1579 70)">step</text><text font-family="Calibri,Calibri_MSFontService,sans-serif" font-weight="400" font-size="24" transform="translate(124.131 70)">–</text><text font-family="Calibri,Calibri_MSFontService,sans-serif" font-weight="400" font-size="24" transform="translate(141.631 70)">reading</text><text font-family="Calibri,Calibri_MSFontService,sans-serif" font-weight="400" font-size="24" transform="translate(220.818 70)">the</text><text font-family="Calibri,Calibri_MSFontService,sans-serif" font-weight="400" font-size="24" transform="translate(258.985 70)">input</text><text font-family="Calibri,Calibri_MSFontService,sans-serif" font-weight="400" font-size="24" transform="translate(315.985 70)">text</text><text font-family="Calibri,Calibri_MSFontService,sans-serif" font-weight="400" font-size="24" transform="translate(359.271 70)">and</text><text font-family="Calibri,Calibri_MSFontService,sans-serif" font-weight="400" font-size="24" transform="translate(401.605 70)">splitting</text><text font-family="Calibri,Calibri_MSFontService,sans-serif" font-weight="400" font-size="24" transform="translate(485.265 70)">it</text><text font-family="Calibri,Calibri_MSFontService,sans-serif" font-weight="400" font-size="24" transform="translate(504.265 70)">into</text><text font-family="Calibri,Calibri_MSFontService,sans-serif" font-weight="400" font-size="24" transform="translate(548.145 70)">directional segments according to the Unicode bidirectional algorithm</text><text font-family="Calibri,Calibri_MSFontService,sans-serif" font-weight="400" font-size="24" transform="translate(35.6712 99)">and fragment characteristics (font, style, etc.)</text><text font-family="Calibri,Calibri_MSFontService,sans-serif" font-weight="400" font-size="24" transform="translate(32.2649 312)">Second</text><text font-family="Calibri,Calibri_MSFontService,sans-serif" font-weight="400" font-size="24" transform="translate(108.732 312)">step</text><text font-family="Calibri,Calibri_MSFontService,sans-serif" font-weight="400" font-size="24" transform="translate(155.705 312)">–</text><text font-family="Calibri,Calibri_MSFontService,sans-serif" font-weight="400" font-size="24" transform="translate(173.205 312)">the</text><text font-family="Calibri,Calibri_MSFontService,sans-serif" font-weight="400" font-size="24" transform="translate(211.372 312)">fragments</text><text font-family="Calibri,Calibri_MSFontService,sans-serif" font-weight="400" font-size="24" transform="translate(315.825 312)">are</text><text font-family="Calibri,Calibri_MSFontService,sans-serif" font-weight="400" font-size="24" transform="translate(352.845 312)">grouped</text><text font-family="Calibri,Calibri_MSFontService,sans-serif" font-weight="400" font-size="24" transform="translate(440.292 312)">into</text><text font-family="Calibri,Calibri_MSFontService,sans-serif" font-weight="400" font-size="24" transform="translate(484.172 312)">directional</text><text font-family="Calibri,Calibri_MSFontService,sans-serif" font-weight="400" font-size="24" transform="translate(593.858 312)">runs</text><text font-family="Calibri,Calibri_MSFontService,sans-serif" font-weight="400" font-size="24" transform="translate(642.358 312)">and</text><text font-family="Calibri,Calibri_MSFontService,sans-serif" font-weight="400" font-size="24" transform="translate(684.692 312)">shaped with</text><text font-family="Calibri,Calibri_MSFontService,sans-serif" font-weight="400" font-size="24" transform="translate(809.858 312)">HarfBuzz</text><text font-family="Calibri,Calibri_MSFontService,sans-serif" font-weight="400" font-size="24" transform="translate(902.192 312)">and a paragraph is built, line by line,</text><text font-family="Calibri,Calibri_MSFontService,sans-serif" font-weight="400" font-size="24" transform="translate(32.2649 341)">according to</text><text font-family="Calibri,Calibri_MSFontService,sans-serif" font-weight="400" font-size="24" transform="translate(158.172 341)">the</text><text font-family="Calibri,Calibri_MSFontService,sans-serif" font-weight="400" font-size="24" transform="translate(196.338 341)">paragraph</text><text font-family="Calibri,Calibri_MSFontService,sans-serif" font-weight="400" font-size="24" transform="translate(301.352 341)">direction</text><text font-family="Calibri,Calibri_MSFontService,sans-serif" font-weight="400" font-size="24" transform="translate(388.538 341)">.</text><text font-family="Calibri,Calibri_MSFontService,sans-serif" font-weight="400" font-size="24" transform="translate(42.3618 408)">Example</text><text font-family="Calibri,Calibri_MSFontService,sans-serif" font-weight="400" font-size="24" transform="translate(130.262 408)">with</text><text font-family="Calibri,Calibri_MSFontService,sans-serif" font-weight="400" font-size="24" transform="translate(179.095 408)">paragraph</text><text font-family="Calibri,Calibri_MSFontService,sans-serif" font-weight="400" font-size="24" transform="translate(284.108 408)">direction</text><text font-family="Calibri,Calibri_MSFontService,sans-serif" font-weight="400" font-size="24" transform="translate(376.795 408)">left</text><text font-family="Calibri,Calibri_MSFontService,sans-serif" font-weight="400" font-size="24" transform="translate(414.915 408)">to</text><text font-family="Calibri,Calibri_MSFontService,sans-serif" font-weight="400" font-size="24" transform="translate(440.848 408)">right</text><text font-family="Calibri,Calibri_MSFontService,sans-serif" font-weight="400" font-size="24" transform="translate(486.462 408)">:</text><text font-family="Calibri,Calibri_MSFontService,sans-serif" font-weight="400" font-size="24" transform="translate(41.186 554)">Example</text><text font-family="Calibri,Calibri_MSFontService,sans-serif" font-weight="400" font-size="24" transform="translate(129.086 554)">with</text><text font-family="Calibri,Calibri_MSFontService,sans-serif" font-weight="400" font-size="24" transform="translate(177.919 554)">paragraph</text><text font-family="Calibri,Calibri_MSFontService,sans-serif" font-weight="400" font-size="24" transform="translate(282.933 554)">direction</text><text font-family="Calibri,Calibri_MSFontService,sans-serif" font-weight="400" font-size="24" transform="translate(375.619 554)">right</text><text font-family="Calibri,Calibri_MSFontService,sans-serif" font-weight="400" font-size="24" transform="translate(426.733 554)">to</text><text font-family="Calibri,Calibri_MSFontService,sans-serif" font-weight="400" font-size="24" transform="translate(452.666 554)">left:</text></g></svg>