<svg width="128pt" height="140" viewBox="0 0 128 105" xmlns="http://www.w3.org/2000/svg"><path style="fill:none;stroke-width:25;stroke-linecap:butt;stroke-linejoin:miter;stroke:#000;stroke-opacity:1;stroke-miterlimit:10" d="M87.5 12.5h1105c41.406 0 75 33.594 75 75v875c0 41.406-33.594 75-75 75H87.5c-41.406 0-75-33.594-75-75v-875c0-41.406 33.594-75 75-75Zm0 0" transform="matrix(.1 0 0 -.1 0 105)"/><path style="fill:none;stroke-width:25;stroke-linecap:round;stroke-linejoin:miter;stroke:#000;stroke-opacity:1;stroke-miterlimit:10" d="M303.516 625c0 55.234-44.805 100-100 100-55.235 0-100-44.766-100-100s44.765-100 100-100c55.195 0 100 44.766 100 100V200c0-41.406 33.554-75 75-75h722.968c41.446 0 75 33.594 75 75v400m-574.687 25c0 55.234-44.805 100-100 100-55.235 0-100-44.766-100-100s44.765-100 100-100c55.195 0 100 44.766 100 100m-200 0V325m476.406 300c0 55.234-44.765 100-100 100-55.195 0-100-44.766-100-100s44.805-100 100-100c55.235 0 100 44.766 100 100v300m98.281-400v325c0 41.406 33.594 75 75 75h50c41.446 0 75-33.594 75-75m-200-137.5h160" transform="matrix(.1 0 0 -.1 0 105)"/><path style="fill:#fff;stroke-width:.179028" d="M9.817 136.344c-2.384-.578-4.432-2.252-5.568-4.552l-.668-1.351V9.56l.668-1.352c1.169-2.365 3.356-4.095 5.83-4.61.682-.141 21.835-.196 75.246-.196 66.646 0 74.424.028 75.524.279 3.18.723 5.735 3.459 6.262 6.706.263 1.624.263 117.602 0 119.226-.527 3.247-3.081 5.983-6.262 6.706-1.1.25-8.855.278-75.667.264-58.979-.012-74.632-.062-75.365-.24zm140.03-11.61c.59-.173 1.678-.61 2.416-.97 1.868-.911 4.133-3.181 5.057-5.068 1.395-2.847 1.299-.527 1.299-31.517 0-26.355-.015-27.691-.323-28.16-.448-.685-1.12-.912-1.959-.663-1.303.389-1.21-1.823-1.21 28.516 0 23.912-.033 27.402-.273 28.325-.79 3.032-3.043 5.312-6.038 6.109-1.462.39-98.77.377-100.265-.013-3.254-.848-5.671-3.467-6.199-6.718-.126-.778-.189-10.858-.19-30.543V54.649l-.43-1.692c-.73-2.88-2.07-5.15-4.27-7.24-3.785-3.594-8.975-4.936-14.099-3.646-2.572.648-4.516 1.72-6.523 3.597-2.049 1.917-3.586 4.44-4.3 7.056-.467 1.713-.564 5.086-.197 6.897 1.57 7.76 8.881 13.025 16.67 12.002 3.256-.428 6.08-1.766 8.425-3.994l1.322-1.255v24.252c0 23.552.01 24.293.353 25.633.534 2.088 1.482 3.742 3.044 5.309 1.93 1.935 4.002 2.997 6.605 3.382.554.082 23.283.139 50.51.125 46.722-.023 49.56-.042 50.575-.34zM54.862 97.84l.458-.457.048-15.405.049-15.406 1.227 1.132c1.922 1.773 4.146 2.97 6.821 3.669 1.433.374 4.99.417 6.535.078 4.878-1.069 9.13-4.622 10.86-9.074.9-2.319 1.086-3.478 1.005-6.252-.065-2.246-.133-2.683-.652-4.207-1.667-4.895-5.55-8.54-10.507-9.865-1.915-.512-5.138-.554-7.151-.094-2.794.638-5.738 2.323-7.629 4.365-1.764 1.906-2.783 3.705-3.604 6.365l-.398 1.288-.052 21.48c-.04 16.048 0 21.606.155 21.982.447 1.078 1.947 1.29 2.836.401zm50.975-26.24c3.092-.42 5.938-1.798 8.248-3.993 1.521-1.444 2.481-2.769 3.366-4.644 1.332-2.825 1.236-.97 1.292-25.17.054-23.834.123-22.276-1.015-22.747-.677-.28-1.346-.127-1.912.44l-.432.431v31.034l-1.322-1.256c-7.435-7.062-19.699-4.677-24.013 4.67-1.026 2.223-1.237 3.3-1.237 6.297 0 3.007.21 4.073 1.25 6.327 2.787 6.037 9.152 9.512 15.775 8.61zm25.65-.435.457-.457.05-11.99.049-11.992h10.032c6.539 0 10.153-.064 10.377-.184.966-.517 1.098-2.167.228-2.851-.456-.359-.665-.366-10.562-.366h-10.097l.05-9.354.052-9.355.665-1.393c1.1-2.302 2.992-3.874 5.428-4.509 1.243-.323 9.132-.387 10.447-.084 2.12.489 4.351 2.183 5.356 4.069.637 1.196 1.109 2.83 1.109 3.847 0 .886.234 1.31.922 1.665.728.377 1.637.203 2.113-.403.758-.963.357-4.051-.843-6.504-.924-1.886-3.188-4.156-5.057-5.069-2.456-1.2-3.048-1.287-8.772-1.283-5.77.004-6.351.094-8.785 1.358-2.632 1.367-4.695 3.79-5.666 6.657l-.498 1.47-.052 22.737c-.03 12.505-.004 23.002.054 23.327.227 1.253 1.962 1.645 2.942.664z" transform="scale(.75)"/><path style="fill:#fff;stroke-width:.179028" d="M101.474 68.022c-4.158-.821-7.874-4.388-8.943-8.585-.383-1.5-.383-4.048 0-5.55 1.066-4.183 4.574-7.57 8.821-8.514 1.898-.422 4.346-.28 6.088.353 1.992.724 2.907 1.311 4.472 2.868 1.173 1.166 1.592 1.738 2.175 2.966.925 1.948 1.196 3.102 1.196 5.102 0 1.998-.27 3.153-1.194 5.103-.595 1.258-.987 1.786-2.264 3.046-1.705 1.684-3.11 2.5-5.287 3.072-1.313.344-3.693.41-5.064.139zM64.041 67.848c-3.712-.972-6.851-3.88-8.114-7.516-.555-1.598-.679-4.791-.25-6.441 1.103-4.25 4.53-7.57 8.796-8.518 2.617-.582 5.765-.111 8.09 1.21 2.825 1.606 4.998 4.585 5.675 7.778 1.265 5.975-2.695 12.162-8.686 13.57-1.583.372-3.908.337-5.51-.083zM24.85 68.033c-4.227-.895-7.874-4.4-8.943-8.596-.383-1.5-.383-4.048 0-5.55.8-3.136 3.147-6.076 5.973-7.478 4.781-2.373 10.051-1.425 13.723 2.467 1.272 1.349 2.392 3.41 2.82 5.19.303 1.265.303 3.928 0 5.192-.428 1.78-1.548 3.842-2.818 5.188-1.455 1.543-2.71 2.386-4.598 3.089-1.246.464-1.765.555-3.437.601-1.083.03-2.307-.016-2.72-.103z" transform="scale(.75)"/></svg>